Coordinates
version=1
nRows=16
nColumns=63
inDegrees=yes

Units are S.I. units (second, meters, Newtons, ...)
If the header above contains a line with 'inDegrees', this indicates whether rotational values are in degrees (yes) or radians (no).

endheader
time	pelvis_tilt	pelvis_list	pelvis_rotation	pelvis_tx	pelvis_ty	pelvis_tz	hip_flexion_r	hip_adduction_r	hip_rotation_r	knee_angle_r	knee_angle_r_beta	ankle_angle_r	subtalar_angle_r	mtp_angle_r	hip_flexion_l	hip_adduction_l	hip_rotation_l	knee_angle_l	knee_angle_l_beta	ankle_angle_l	subtalar_angle_l	mtp_angle_l	L5_S1_Flex_Ext	L5_S1_Lat_Bending	L5_S1_axial_rotation	L4_L5_Flex_Ext	L4_L5_Lat_Bending	L4_L5_axial_rotation	L3_L4_Flex_Ext	L3_L4_Lat_Bending	L3_L4_axial_rotation	L2_L3_Flex_Ext	L2_L3_Lat_Bending	L2_L3_axial_rotation	L1_L2_Flex_Ext	L1_L2_Lat_Bending	L1_L2_axial_rotation	L1_T12_Flex_Ext	L1_T12_Lat_Bending	L1_T12_axial_rotation	Abs_r3	Abs_r2	Abs_r1	Abs_t1	Abs_t2	neck_flexion	neck_bending	neck_rotation	arm_flex_r	arm_add_r	arm_rot_r	elbow_flex_r	pro_sup_r	wrist_flex_r	wrist_dev_r	arm_flex_l	arm_add_l	arm_rot_l	elbow_flex_l	pro_sup_l	wrist_flex_l	wrist_dev_l
3.783333	0.249539	-4.760063	99.007886	0.304170	0.916718	0.620411	-6.664252	3.468010	-15.899724	6.821865	0.119064	31.739824	16.111696	0.000000	-7.033626	-5.709728	18.499080	0.604459	0.010550	24.986980	-11.670300	0.000000	-0.153640	-0.342496	0.351847	-0.285325	-0.455519	0.373837	-0.252416	-0.832744	0.373837	-0.175595	-0.832744	0.307866	-0.142670	-0.698418	0.285876	-0.087790	-0.530526	0.263885	-1.097437	-3.874382	1.956867	0.000000	0.000000	1.119746	7.096185	-13.030054	-16.014505	-7.654153	-16.656080	105.809480	78.985726	-11.520061	9.060551	11.674191	-17.061668	21.653518	47.698605	83.694792	-8.145478	-1.513694
3.800000	0.050640	-4.816668	99.152810	0.304736	0.916093	0.620255	-6.874507	3.427185	-15.357426	6.275422	0.109527	31.824739	15.634042	0.000000	-6.950449	-5.576126	19.607012	0.539743	0.009420	25.039481	-12.352678	0.000000	-0.157213	-0.377492	0.288190	-0.291960	-0.502064	0.306202	-0.258285	-0.917833	0.306202	-0.179679	-0.917833	0.252167	-0.145988	-0.769781	0.234155	-0.089831	-0.584735	0.216143	-1.122956	-4.270261	1.602829	0.000000	0.000000	1.704866	7.359001	-12.902482	-15.626990	-7.585769	-18.102828	101.827521	79.393461	-11.970118	10.072111	12.152552	-16.948500	20.166953	43.103684	84.785619	-9.850116	-1.271057
3.816667	-0.152931	-4.895499	99.218687	0.305249	0.915494	0.620318	-7.011127	3.343183	-14.857917	5.825734	0.101678	31.945240	15.251303	0.000000	-6.841567	-5.410476	20.513343	0.483066	0.008431	25.120119	-12.960998	0.000000	-0.162088	-0.411205	0.239260	-0.301014	-0.546903	0.254214	-0.266295	-0.999804	0.254214	-0.185251	-0.999804	0.209353	-0.150515	-0.838529	0.194399	-0.092617	-0.636957	0.179445	-1.157781	-4.651633	1.330693	0.000000	0.000000	2.337994	7.574449	-12.815441	-14.949582	-7.606828	-19.082581	98.061605	80.125395	-11.975266	11.058824	12.540818	-16.800488	18.830818	39.330295	85.766410	-10.667827	-0.794676
3.833333	-0.332128	-5.005304	99.278312	0.305648	0.914958	0.620626	-7.091671	3.258092	-14.439709	5.402396	0.094290	32.025693	14.915427	0.000000	-6.682358	-5.249597	21.295214	0.440542	0.007689	25.220230	-13.471823	0.000000	-0.166783	-0.440385	0.201822	-0.309733	-0.585713	0.214436	-0.274008	-1.070753	0.214436	-0.190616	-1.070753	0.176595	-0.154875	-0.898034	0.163981	-0.095300	-0.682157	0.151367	-1.191315	-4.981728	1.122476	0.000000	0.000000	2.977122	7.723178	-12.788490	-14.028582	-7.615247	-19.628370	94.619414	81.247634	-11.872465	11.836439	12.893351	-16.624565	17.771927	36.428299	86.485035	-10.631224	0.067583
3.850000	-0.494397	-5.160962	99.228033	0.306008	0.914497	0.621309	-7.033150	3.134594	-14.106675	5.135561	0.089632	32.105266	14.698996	0.000000	-6.466080	-5.072002	21.833781	0.413861	0.007223	25.300026	-13.937554	0.000000	-0.171864	-0.464912	0.192918	-0.319170	-0.618333	0.204975	-0.282356	-1.130388	0.204975	-0.196424	-1.130388	0.168803	-0.159593	-0.948049	0.156746	-0.098203	-0.720149	0.144688	-1.227611	-5.259181	1.072950	0.000000	0.000000	3.636781	7.793356	-12.837072	-12.892603	-7.572675	-19.694172	91.658457	82.627791	-11.954044	12.465906	13.236039	-16.399485	17.029221	34.426914	86.884814	-10.169128	1.101878
3.866667	-0.648628	-5.380334	99.067447	0.306368	0.914102	0.622344	-6.820268	2.966111	-13.838460	5.014561	0.087521	32.178616	14.602552	0.000000	-6.179376	-4.870807	22.046620	0.398629	0.006957	25.375849	-14.248786	0.000000	-0.173478	-0.486381	0.211682	-0.322166	-0.646887	0.224912	-0.285007	-1.182587	0.224912	-0.198268	-1.182587	0.185222	-0.161092	-0.991828	0.171991	-0.099125	-0.753404	0.158761	-1.239138	-5.502041	1.177310	0.000000	0.000000	4.284517	7.816702	-12.921339	-11.625617	-7.438223	-19.352166	89.295817	84.034562	-12.161917	13.035512	13.579006	-16.137846	16.641662	33.368149	86.927093	-9.754957	2.036063
3.883333	-0.775678	-5.649484	98.785149	0.306720	0.913782	0.623760	-6.444998	2.769510	-13.638544	5.073520	0.088550	32.260153	14.634268	0.000000	-5.837386	-4.666871	21.927982	0.393287	0.006864	25.450128	-14.416881	0.000000	-0.172939	-0.501652	0.259458	-0.321165	-0.667197	0.275674	-0.284122	-1.219717	0.275674	-0.197652	-1.219717	0.227026	-0.160591	-1.022969	0.210809	-0.098817	-0.777059	0.194593	-1.235287	-5.674789	1.443026	0.000000	0.000000	4.909648	7.773864	-13.031148	-10.303106	-7.225066	-18.692717	87.602727	85.305830	-12.454585	13.603172	13.949147	-15.759656	16.525484	33.137036	86.795130	-9.512789	2.690427
3.900000	-0.862298	-5.955710	98.401094	0.307036	0.913534	0.625507	-5.922265	2.563945	-13.500093	5.304917	0.092588	32.354461	14.792781	0.000000	-5.455574	-4.478440	21.536658	0.392179	0.006845	25.528773	-14.492848	0.000000	-0.169910	-0.509159	0.330514	-0.315539	-0.677181	0.351171	-0.279145	-1.237968	0.351171	-0.194190	-1.237968	0.289200	-0.157778	-1.038276	0.268543	-0.097086	-0.788687	0.247886	-1.213648	-5.759705	1.838220	0.000000	0.000000	5.501726	7.672961	-13.147442	-8.991705	-6.969428	-17.767302	86.555086	86.168518	-12.756614	14.108180	14.345304	-15.220554	16.585313	33.614477	86.695691	-9.449388	3.015700
3.916667	-0.907827	-6.281913	97.953287	0.307306	0.913357	0.627511	-5.282659	2.361254	-13.435255	5.687155	0.099260	32.477495	15.065725	0.000000	-5.051364	-4.315429	20.932600	0.392849	0.006857	25.619201	-14.467063	0.000000	-0.165254	-0.508986	0.414026	-0.306894	-0.676951	0.439903	-0.271496	-1.237548	0.439903	-0.188869	-1.237548	0.362273	-0.153455	-1.037924	0.336396	-0.094426	-0.788419	0.310520	-1.180394	-5.757750	2.302690	0.000000	0.000000	6.050923	7.518861	-13.234840	-7.719891	-6.696535	-16.574539	86.032342	86.598550	-13.005272	14.427246	14.746537	-14.516607	16.728537	34.705277	86.652291	-9.527245	3.111957
3.933333	-0.910488	-6.618557	97.427997	0.307576	0.913225	0.629658	-4.542883	2.169229	-13.412498	6.220172	0.108562	32.645462	15.454173	0.000000	-4.643442	-4.185029	20.071280	0.394257	0.006881	25.765441	-14.256609	0.000000	-0.158399	-0.501656	0.522765	-0.294163	-0.667203	0.555438	-0.260234	-1.219727	0.555438	-0.181034	-1.219727	0.457420	-0.147089	-1.022977	0.424747	-0.090509	-0.777065	0.392074	-1.131429	-5.674835	2.907464	0.000000	0.000000	6.544470	7.326832	-13.377828	-6.530350	-6.429860	-15.187482	85.941082	86.797231	-13.157660	14.678625	15.189982	-13.675348	17.082659	36.242674	86.593318	-9.731244	2.994659
3.950000	-0.864612	-6.945257	96.929415	0.307775	0.913123	0.631822	-3.760263	2.016101	-13.476359	6.843468	0.119441	32.846439	15.918624	0.000000	-4.241474	-4.108356	19.123021	0.395486	0.006903	25.966975	-13.915280	0.000000	-0.150827	-0.486713	0.626824	-0.280101	-0.647329	0.666000	-0.247794	-1.183395	0.666000	-0.172380	-1.183395	0.548471	-0.140058	-0.992506	0.509294	-0.086183	-0.753919	0.470118	-1.077344	-5.505797	3.486206	0.000000	0.000000	6.981333	7.106231	-13.493644	-5.356503	-6.165657	-13.537717	86.006293	86.734801	-13.094512	14.691077	15.609237	-12.726863	17.465083	38.144078	86.544510	-9.913706	2.878413
3.966667	-0.791351	-7.252119	96.456568	0.307939	0.913025	0.633897	-2.964167	1.886481	-13.604350	7.542419	0.131640	33.102189	16.418434	0.000000	-3.864847	-4.067504	18.199800	0.393344	0.006865	26.191113	-13.555214	0.000000	-0.143696	-0.467174	0.727983	-0.266859	-0.621342	0.773481	-0.236079	-1.135888	0.773481	-0.164231	-1.135888	0.636985	-0.133436	-0.952662	0.591486	-0.082108	-0.723653	0.545987	-1.026409	-5.284769	4.048820	0.000000	0.000000	7.368180	6.852953	-13.616502	-4.152819	-5.897973	-11.621990	86.048020	86.622817	-12.906591	14.559068	16.000582	-11.714664	17.864569	40.318287	86.444140	-10.011104	2.986219
3.983333	-0.697270	-7.524129	96.015689	0.308086	0.912914	0.635774	-2.195945	1.781942	-13.798645	8.280363	0.144520	33.410183	16.961861	0.000000	-3.533713	-4.059288	17.236395	0.389649	0.006801	26.473184	-13.059471	0.000000	-0.138436	-0.444248	0.823552	-0.257089	-0.590850	0.875024	-0.227436	-1.080144	0.875024	-0.158218	-1.080144	0.720608	-0.128551	-0.905910	0.669136	-0.079102	-0.688140	0.617664	-0.988831	-5.025421	4.580352	0.000000	0.000000	7.695559	6.554721	-13.774329	-2.866434	-5.626533	-9.418179	85.876729	86.338479	-12.582445	14.291730	16.350810	-10.698668	18.332952	42.651473	86.203747	-9.994192	3.275983
4.000000	-0.585589	-7.759176	95.663100	0.308192	0.912773	0.637362	-1.491267	1.715328	-14.009988	8.998428	0.157052	33.740357	17.449925	0.000000	-3.245636	-4.087571	16.409570	0.384146	0.006705	26.785914	-12.576772	0.000000	-0.134431	-0.418610	0.901588	-0.249652	-0.556751	0.957937	-0.220857	-1.017809	0.957937	-0.153641	-1.017809	0.788890	-0.124833	-0.853630	0.732540	-0.076814	-0.648427	0.676191	-0.960227	-4.735401	5.014363	0.000000	0.000000	7.975607	6.258996	-13.909482	-1.474783	-5.299924	-6.958295	85.362714	86.212549	-12.265519	13.888966	16.632514	-9.741760	18.936150	45.053055	85.716549	-9.889424	3.591358
4.016667	-0.451207	-7.936163	95.407931	0.308231	0.912626	0.638594	-0.900326	1.702120	-14.202247	9.637114	0.168199	34.059480	17.856899	0.000000	-3.023962	-4.160048	15.734332	0.377001	0.006580	27.114535	-12.132801	0.000000	-0.133715	-0.388975	0.960991	-0.248322	-0.517336	1.021053	-0.219680	-0.945753	1.021053	-0.152823	-0.945753	0.840867	-0.124168	-0.793197	0.780805	-0.076405	-0.602522	0.720743	-0.955113	-4.400160	5.344743	0.000000	0.000000	8.186539	5.932243	-14.023403	0.002188	-4.934379	-4.294009	84.458090	86.122096	-11.951376	13.359629	16.820919	-8.871139	19.714530	47.470685	85.012273	-9.779473	3.820003
4.033333	-0.291002	-8.057040	95.224484	0.308201	0.912486	0.639445	-0.414831	1.737609	-14.381004	10.216874	0.178318	34.371353	18.198025	0.000000	-2.871560	-4.276104	15.169707	0.368599	0.006433	27.452556	-11.712504	0.000000	-0.134779	-0.354495	1.007450	-0.250297	-0.471478	1.070416	-0.221428	-0.861919	1.070416	-0.154039	-0.861919	0.881519	-0.125155	-0.722886	0.818553	-0.077013	-0.549113	0.755588	-0.962711	-4.010118	5.603135	0.000000	0.000000	8.316781	5.599642	-14.087335	1.507016	-4.565346	-1.489719	83.213887	86.163581	-11.727132	12.744096	16.887825	-8.091809	20.627904	49.849642	84.083661	-9.567314	3.827167
